<?xml version="1.0" encoding="utf-8"?>
  <!-- Generator: Adobe Illustrator 22.0.1, SVG Export Plug-In . SVG Version: 6.00 Build 0)  -->
  <svg version="1.1" id="logo-devparana" xmlns="http://www.w3.org/2000/svg" xmlns:xlink="http://www.w3.org/1999/xlink" x="0px" y="0px" viewBox="0 0 300 300" style="enable-background:new 0 0 300 300;" xml:space="preserve">
    <style type="text/css">
      .st0 {
        fill: #15A04B;
      }

      .st1 {
        fill: #FFFFFF;
      }
    </style>
    <g>
      <path id="path" class="st0" d="M132.5,290.8L9.2,167.5c-9.6-9.6-9.6-25.4,0-35L132.5,9.2c9.6-9.6,25.4-9.6,35,0l123.3,123.3
		c9.6,9.6,9.6,25.4,0,35L167.5,290.8c-2.4,2.4-5.2,4.2-8.1,5.4c-0.1,0-18.5,0.1-18.5,0.1C137.8,295.1,134.9,293.2,132.5,290.8z" />
      <path id="branch" class="st1" d="M232.6,98.9c-8.1,0-14.8,6.7-14.8,14.8c0,6.5,4.3,12.3,10.4,14.2v27.5c0,15.6-9.8,24.2-31.8,27.7
		c-3-5.8-9.3-9.5-19.2-11h-0.1c-7.8-1-13.7-3.3-18-6.8V158c4.2-3.7,10.1-6,18.2-7h0.1c13.9-2.1,21-8.7,21-19.4v-16.1
		c6.4-1.6,11.3-7.4,11.3-14.4c0-8.2-6.7-14.9-14.8-14.9s-14.8,6.7-14.8,15c0,7.1,5.1,13.1,11.7,14.5v16c0,7.4-4.6,11.2-15.4,12.9
		c-7,0.8-12.7,2.6-17.2,5.4v-48.6c5.4-3.2,9-9,9-15.6c0-10-8.1-18.2-18.2-18.2c-10,0-18.2,8.1-18.2,18.2c0,6.7,3.6,12.5,9,15.6v41.5
		c-4.1-2-9-3.4-14.8-4.1c-13.5-2-15.2-7.8-15.2-12.7v-11.3c6.5-1.5,11.5-7.4,11.5-14.5c0-8.1-6.7-14.8-14.8-14.8
		s-14.8,6.6-14.8,14.7c0,7.1,5,12.9,11.5,14.5V126c0,10.7,7,17.2,20.9,19.2c6.7,1,11.8,2.5,15.7,5.2v23.3c-9.3-5.9-21-9.8-35.6-11.6
		c-22.5-3.4-32.5-11.9-32.5-27.8V128c5.9-2,10.1-7.5,10.1-14.1c0-8.1-6.7-14.8-14.8-14.8s-14.8,6.7-14.8,14.8
		c0,6.5,4.2,12.1,10.1,14.1v6.3c0,11.6,4.3,20.7,12.9,27c6.5,4.9,15.6,8.1,27.7,9.9h0.1c16.2,2.1,28.2,6.7,36.9,13.9l0,111.2
		c5.9,2.3,12.6,2.2,18.5-0.1l0-49.7c4.2-3.6,10-5.8,18-6.8h0.1c13.9-2.1,21-8.7,21-19.4v-2.4c4.3-1.4,7.5-5.5,7.5-10.2
		s-3.2-8.9-7.5-10.2v-5.2c11.4-1.9,20.1-5.1,26.4-9.8c8.6-6.3,12.9-15.4,12.9-27v-27.6c5.4-2.1,9.5-7.6,9.5-14.1
		c0-3.9-1.5-7.6-4.2-10.5C240.3,100.5,236.6,98.9,232.6,98.9z M185.4,101.2c0-5.2,4.2-9.4,9.3-9.4c5.2,0,9.3,4.2,9.3,9.4
		s-4.2,9.3-9.3,9.3C189.7,110.5,185.4,106.2,185.4,101.2z M107.3,109.5c-5.1,0-9.3-4.2-9.3-9.3c0-5.2,4.2-9.3,9.3-9.3
		s9.3,4.2,9.3,9.3C116.6,105.3,112.3,109.5,107.3,109.5z M67.8,123c-5.1,0-9.3-4.1-9.3-9.3c0-5.2,4.2-9.3,9.3-9.3s9.3,4.2,9.3,9.3
		C77.1,118.8,72.8,123,67.8,123z M149.8,98.3c-7,0-12.7-5.7-12.7-12.7c0-7.1,5.7-12.8,12.7-12.8s12.7,5.7,12.7,12.7
		C162.5,92.5,156.8,98.3,149.8,98.3z M159,173.3c4.6,2.6,10.2,4.4,17.1,5.3c6.4,1,10.7,2.7,13,5.6c-12,2.2-22.1,5.9-30.1,11.2V173.3
		z M191.6,197.5c-4.3,1.4-7.5,5.5-7.5,10.2c0,4.9,3.2,8.9,7.5,10.2v2.4c-0.1,7.4-4.6,11.2-15.4,12.9c-6.9,0.8-12.5,2.6-17,5.3v-31.4
		c7.8-6.9,18.4-11.4,32.4-13.8V197.5z M232.6,123.1c-5.2,0-9.3-4.2-9.3-9.3s4.2-9.3,9.3-9.3c2.5,0,4.9,1,6.7,2.7
		c1.8,1.8,2.6,4.1,2.6,6.5C241.9,118.9,237.7,123.1,232.6,123.1z" />
    </g>
  </svg>
